# This file uses inches as units for non-parametric coordinates.

mtllib lathi.mtl
g default
v -0.089188 -0.155563 -0.016113
v -0.110214 -0.153969 0.078766
v -0.033463 -0.153511 0.145538
v 0.064316 -0.154648 0.117493
v 0.085358 -0.156235 0.022583
v 0.008606 -0.156704 -0.044220
v -0.089920 1.450310 -0.073151
v -0.115463 1.452244 0.042114
v -0.022263 1.452805 0.123260
v 0.096527 1.451424 0.089142
v 0.122086 1.449478 -0.026062
v 0.028854 1.448921 -0.107178
v -0.076447 2.591389 -0.113556
v -0.102020 2.593327 0.001648
v -0.008789 2.593880 0.082733
v 0.109985 2.592499 0.048615
v 0.135529 2.590553 -0.066559
v 0.042313 2.590004 -0.147736
v -0.075836 3.733437 -0.096191
v -0.101379 3.735374 0.018982
v -0.008179 3.735943 0.100037
v 0.110580 3.734558 0.065979
v 0.136169 3.732605 -0.049194
v 0.042938 3.732052 -0.130341
v -0.072037 4.875248 -0.093201
v -0.097626 4.877197 0.022003
v -0.004364 4.877739 0.103149
v 0.114380 4.876366 0.069092
v 0.139938 4.874420 -0.046143
v 0.046722 4.873871 -0.127319
v -0.071426 6.017311 -0.075867
v -0.097015 6.019245 0.039368
v -0.003754 6.019787 0.120514
v 0.115005 6.018417 0.086395
v 0.140533 6.016487 -0.028809
v 0.047333 6.015923 -0.109955
v -0.058563 7.758034 -0.081146
v -0.083008 7.743431 0.028839
v 0.006104 7.735741 0.106262
v 0.119675 7.742645 0.073761
v 0.144104 7.757240 -0.036194
v 0.054993 7.764935 -0.113678
v -0.065628 8.869621 -0.029755
v -0.090042 8.871464 0.080383
v -0.000931 8.872002 0.157990
v 0.112640 8.870682 0.125366
v 0.137054 8.868820 0.015228
v 0.047928 8.868298 -0.062347
v -0.012436 -0.155098 0.050690
v 0.023499 8.870152 0.047882
vt 0.955310 0.977780
vt 0.956660 0.980280
vt 0.957580 0.854990
vt 0.944630 0.853220
vt 0.956680 0.986320
vt 0.970790 0.858770
vt 0.955580 0.998040
vt 0.983740 0.864580
vt 0.953550 0.981630
vt 0.916160 0.855040
vt 0.902260 0.856290
vt 0.953980 0.978650
vt 0.930640 0.853260
vt 0.961250 0.727240
vt 0.947750 0.727070
vt 0.975360 0.727710
vt 0.989420 0.728470
vt 0.919390 0.727240
vt 0.905850 0.727400
vt 0.933580 0.727100
vt 0.961230 0.597290
vt 0.947750 0.597630
vt 0.975300 0.597190
vt 0.989360 0.597440
vt 0.919490 0.597780
vt 0.906020 0.597570
vt 0.933620 0.597850
vt 0.960730 0.467310
vt 0.947270 0.467680
vt 0.974820 0.467100
vt 0.988910 0.467220
vt 0.919080 0.467750
vt 0.905620 0.467440
vt 0.933160 0.467880
vt 0.960740 0.337450
vt 0.947260 0.337620
vt 0.974860 0.337340
vt 0.988940 0.337410
vt 0.919020 0.337250
vt 0.905560 0.336730
vt 0.933140 0.337600
vt 0.964030 0.141580
vt 0.951160 0.139670
vt 0.977540 0.142550
vt 0.991040 0.141880
vt 0.924190 0.138200
vt 0.911260 0.138700
vt 0.937710 0.138290
vt 0.972540 0.014580
vt 0.960480 0.013200
vt 0.985150 0.014590
vt 0.998040 0.013750
vt 0.935100 0.011170
vt 0.923460 0.007090
vt 0.947530 0.013400
vt 0.956110 0.989320
vt 0.978990 0.004020
vt 0.944410 0.001950
vn -0.475783 -0.766991 -0.430530
vn -0.622248 -0.752807 0.214685
vn -0.949749 0.013164 0.312736
vn -0.728549 -0.020163 -0.684696
vn -0.148269 -0.740728 0.655239
vn -0.216379 0.026128 0.975960
vn 0.467506 -0.757077 0.456369
vn 0.728513 0.006603 0.685001
vn 0.607559 -0.771155 -0.190241
vn 0.949574 -0.026734 -0.312403
vn 0.135698 -0.768874 -0.624835
vn 0.216305 -0.039087 -0.975543
vn -0.949789 0.009040 0.312762
vn -0.728597 -0.002438 -0.684938
vn -0.216409 0.011251 0.976238
vn 0.728490 0.002467 0.685052
vn 0.949849 -0.009027 -0.312577
vn 0.216447 -0.011226 -0.976230
vn -0.949785 -0.000962 0.312902
vn -0.728480 0.007517 -0.685025
vn -0.216545 -0.008309 0.976237
vn 0.728261 -0.007539 0.685259
vn 0.949868 0.000961 -0.312650
vn 0.216491 0.008301 -0.976249
vn -0.949818 -0.000976 0.312802
vn -0.728369 0.007507 -0.685144
vn -0.216591 -0.008321 0.976227
vn 0.728314 -0.007534 0.685202
vn 0.949853 0.000965 -0.312696
vn 0.216622 0.008292 -0.976220
vn -0.949757 0.002696 0.312975
vn -0.728310 0.007065 -0.685211
vn -0.216501 -0.002708 0.976279
vn 0.728344 -0.003858 0.685201
vn 0.949803 0.000501 -0.312848
vn 0.216660 0.005829 -0.976230
vn -0.949833 -0.005253 0.312715
vn -0.728531 0.015211 -0.684844
vn -0.216537 -0.018272 0.976103
vn 0.728532 -0.011822 0.684909
vn 0.949857 0.008645 -0.312565
vn 0.216624 0.021779 -0.976012
vn -0.623549 0.757054 0.195078
vn -0.462165 0.763835 -0.450512
vn -0.141904 0.744265 0.652636
vn 0.488226 0.752761 0.441572
vn 0.615012 0.759574 -0.211676
vn 0.143964 0.758619 -0.635430
vn -0.007239 -0.999858 0.015198
vn 0.007277 0.999858 -0.015198
s 1
g Maee_Lathi
usemtl blinn1SG
f 1/1/1 2/2/2 8/3/3 7/4/4
f 2/2/2 3/5/5 9/6/6 8/3/3
f 3/5/5 4/7/7 10/8/8 9/6/6
f 4/7/7 5/9/9 11/10/10 10/11/8
f 5/9/9 6/12/11 12/13/12 11/10/10
f 6/12/11 1/1/1 7/4/4 12/13/12
f 7/4/4 8/3/3 14/14/13 13/15/14
f 8/3/3 9/6/6 15/16/15 14/14/13
f 9/6/6 10/8/8 16/17/16 15/16/15
f 10/11/8 11/10/10 17/18/17 16/19/16
f 11/10/10 12/13/12 18/20/18 17/18/17
f 12/13/12 7/4/4 13/15/14 18/20/18
f 13/15/14 14/14/13 20/21/19 19/22/20
f 14/14/13 15/16/15 21/23/21 20/21/19
f 15/16/15 16/17/16 22/24/22 21/23/21
f 16/19/16 17/18/17 23/25/23 22/26/22
f 17/18/17 18/20/18 24/27/24 23/25/23
f 18/20/18 13/15/14 19/22/20 24/27/24
f 19/22/20 20/21/19 26/28/25 25/29/26
f 20/21/19 21/23/21 27/30/27 26/28/25
f 21/23/21 22/24/22 28/31/28 27/30/27
f 22/26/22 23/25/23 29/32/29 28/33/28
f 23/25/23 24/27/24 30/34/30 29/32/29
f 24/27/24 19/22/20 25/29/26 30/34/30
f 25/29/26 26/28/25 32/35/31 31/36/32
f 26/28/25 27/30/27 33/37/33 32/35/31
f 27/30/27 28/31/28 34/38/34 33/37/33
f 28/33/28 29/32/29 35/39/35 34/40/34
f 29/32/29 30/34/30 36/41/36 35/39/35
f 30/34/30 25/29/26 31/36/32 36/41/36
f 31/36/32 32/35/31 38/42/37 37/43/38
f 32/35/31 33/37/33 39/44/39 38/42/37
f 33/37/33 34/38/34 40/45/40 39/44/39
f 34/40/34 35/39/35 41/46/41 40/47/40
f 35/39/35 36/41/36 42/48/42 41/46/41
f 36/41/36 31/36/32 37/43/38 42/48/42
f 37/43/38 38/42/37 44/49/43 43/50/44
f 38/42/37 39/44/39 45/51/45 44/49/43
f 39/44/39 40/45/40 46/52/46 45/51/45
f 40/47/40 41/46/41 47/53/47 46/54/46
f 41/46/41 42/48/42 48/55/48 47/53/47
f 42/48/42 37/43/38 43/50/44 48/55/48
f 2/2/2 1/1/1 49/56/49
f 3/5/5 2/2/2 49/56/49
f 4/7/7 3/5/5 49/56/49
f 5/9/9 4/7/7 49/56/49
f 6/12/11 5/9/9 49/56/49
f 1/1/1 6/12/11 49/56/49
f 43/50/44 44/49/43 50/57/50
f 44/49/43 45/51/45 50/57/50
f 45/51/45 46/52/46 50/57/50
f 46/54/46 47/53/47 50/58/50
f 47/53/47 48/55/48 50/58/50
f 48/55/48 43/50/44 50/58/50
